# Blender v2.79 (sub 0) OBJ File: 'rubber.blend'
# www.blender.org
mtllib rubber.mtl
o Rubber
v -2.530000 -105.500000 0.049999
v -2.530000 105.500000 -0.049999
v -2.530000 -105.500000 -0.049999
v -2.530000 105.500000 0.049999
v 2.469999 -105.500000 -0.049999
v 2.469999 105.500000 -0.049999
v 2.469999 -105.500000 0.049999
v 2.469999 105.500000 0.049999
vn -1.0000 0.0000 0.0000
vn 0.0000 0.0000 -1.0000
vn 0.0000 -1.0000 0.0000
vn 0.0000 0.0000 1.0000
vn 1.0000 0.0000 0.0000
vn 0.0000 1.0000 0.0000
usemtl None
s off
f 1//1 2//1 3//1
f 2//1 1//1 4//1
f 5//2 2//2 6//2
f 2//2 5//2 3//2
f 1//3 5//3 7//3
f 5//3 1//3 3//3
f 1//4 8//4 4//4
f 8//4 1//4 7//4
f 8//5 5//5 6//5
f 5//5 8//5 7//5
f 2//6 8//6 6//6
f 8//6 2//6 4//6
